<svg id="Layer_1" enable-background="new 0 0 511.8 511.8" height="512" viewBox="0 0 511.8 511.8" width="512" xmlns="http://www.w3.org/2000/svg"><g><path d="m511.772 255.872c0-141.314-114.558-255.872-255.872-255.872-56.504 0-108.903 18.392-151.376 49.6-63.256 46.476-67.778 121.503-67.778 206.4 0 80.093.09 120.558 57.703 167.475.29.236 12.545 32.891 32.171 35.182 36.258 21.954 80.604 34.056 130.918 34.056 54.303 0 91.793-15.798 132.73-39.043 6.491-2.135 17.493-13.41 21.216-16.458 6.55-5.362 20.918-15.056 20.916-15.061 28.534-28.512 53.187-47.225 65.424-82.747 9.317-27.052 13.948-55.313 13.948-83.532z" fill="#55c7a6"/><path d="m497.813 339.4c-42.388 31.157-94.715 49.582-151.356 49.582-141.903 0-255.872-115.219-255.872-255.872 0-29.24 4.917-57.327 13.948-83.498-63.255 46.476-104.505 121.363-104.505 206.26 0 80.093 36.805 151.583 94.418 198.5.29.236 12.548 1.993 32.174 4.284 36.258 21.954 80.604 34.056 130.918 34.056 54.303 0 103.858-7.695 144.794-30.94 6.491-2.135 11.742-4.695 15.465-7.743 6.55-5.362 12.872-11.078 18.941-17.139-.002-.006-.004-.011-.006-.017 28.533-28.511 48.844-61.95 61.081-97.473z" fill="#39ae96"/><g><g><path d="m375.838 453.67h-240.323v-302.102c0-38.259 31.015-69.273 69.273-69.273h101.777c38.259 0 69.273 31.015 69.273 69.273z" fill="#783c28"/></g><g><path d="m387.823 475.139c10.502-6.333 20.516-13.394 29.964-21.122-1.597-6.717-4.142-13.064-7.469-18.907h-250.859v40.028h228.364z" fill="#fff"/></g><g><path d="m162.852 477.121v-6.365c0-12.969 3.429-25.133 9.422-35.645h-70.278c-3.376 5.925-5.95 12.388-7.547 19.258 10.321 8.405 21.313 16.017 32.879 22.752z" fill="#fff"/></g><g><path d="m164.681 398.63c-.808 0-1.612.014-2.413.04-.216.007-.428.028-.643.038-.626.026-1.248.067-1.87.109-.147.012-.295.021-.442.034-25.43 1.876-47.186 16.933-58.474 38.362h310.644c-12.074-22.934-36.126-38.581-63.844-38.583z" fill="#ffc305"/></g><g><path d="m121.588 473.682c39.041 24.126 85.046 38.062 134.311 38.062s95.27-13.936 134.311-38.062z" fill="#ffc305"/></g><g><g><g><path d="m305.865 188.114h-100.366c-22.506 0-40.751-4.428-40.751-26.934v-65.672c0-22.506 18.245-40.751 40.751-40.751h100.366c22.506 0 40.751 18.245 40.751 40.751v65.672c-.001 22.506-18.246 26.934-40.751 26.934z" fill="#783c28"/></g></g></g><g><circle cx="357.145" cy="265.054" fill="#fff" r="8.929"/></g><g><g><g><path d="m177.096 135.355v-9.4c0-24.113 19.547-43.66 43.66-43.66h-18.84c-24.113 0-43.66 19.547-43.66 43.66v9.4z" fill="#a55a3c"/></g></g></g><g><g><g><path d="m256.161 438.103c-18.859 0-34.148-15.288-34.148-34.148v-76.485h68.295v76.485c.001 18.86-15.287 34.148-34.147 34.148z" fill="#ff965a"/></g></g></g><g><g><g><path d="m255.202 372.871c-53.542 0-96.946-43.404-96.946-96.946v-33.274c0-57.035 46.236-103.272 103.272-103.272h49.218c22.719 0 41.199 18.297 41.424 41.015l.939 94.572c-.001 54.071-43.835 97.905-97.907 97.905z" fill="#ffbe82"/></g></g></g><g><g><g><path d="m353.108 262.944v-57.624c12.554 0 22.73 10.177 22.73 22.73v12.163c0 12.555-10.177 22.731-22.73 22.731z" fill="#ff965a"/></g></g></g><g><g><g><path d="m158.255 262.944v-57.624c-12.554 0-22.73 10.177-22.73 22.73v12.163c0 12.555 10.177 22.731 22.73 22.731z" fill="#ff965a"/></g></g></g><g><g><g><path d="m222.348 254.87c-4.459 0-8.074-3.615-8.074-8.074v-22.083c0-4.459 3.615-8.074 8.074-8.074s8.074 3.615 8.074 8.074v22.083c.001 4.458-3.614 8.074-8.074 8.074z" fill="#ff965a"/></g></g></g><g><g><g><path d="m288.29 254.87c-4.459 0-8.074-3.615-8.074-8.074v-22.083c0-4.459 3.615-8.074 8.074-8.074s8.074 3.615 8.074 8.074v22.083c.001 4.458-3.615 8.074-8.074 8.074z" fill="#ff965a"/></g></g></g><g><g><g><path d="m222.348 248.141c-4.459 0-8.074-3.615-8.074-8.074v-22.083c0-4.459 3.615-8.074 8.074-8.074s8.074 3.615 8.074 8.074v22.083c.001 4.458-3.614 8.074-8.074 8.074z" fill="#373c41"/></g></g></g><g><g><g><path d="m288.29 248.141c-4.459 0-8.074-3.615-8.074-8.074v-22.083c0-4.459 3.615-8.074 8.074-8.074s8.074 3.615 8.074 8.074v22.083c.001 4.458-3.615 8.074-8.074 8.074z" fill="#373c41"/></g></g></g><g><g><g><g><path d="m232.986 205.871h-23.547c-4.459 0-8.074-3.615-8.074-8.074 0-4.459 3.615-8.074 8.074-8.074h23.547c4.459 0 8.074 3.615 8.074 8.074.001 4.459-3.614 8.074-8.074 8.074z" fill="#783c28"/></g></g></g></g><g><g><g><g><path d="m300.274 205.871h-23.547c-4.459 0-8.074-3.615-8.074-8.074 0-4.459 3.615-8.074 8.074-8.074h23.547c4.459 0 8.074 3.615 8.074 8.074 0 4.459-3.615 8.074-8.074 8.074z" fill="#783c28"/></g></g></g></g><g><g><g><path d="m243.078 261.977c-2.007 7.073 1.641 14.778 8.617 17.1 1.404.467 2.905.72 4.466.72s3.063-.253 4.466-.72c6.976-2.322 10.624-10.027 8.617-17.1l-9.79-34.498c-.942-3.318-5.644-3.318-6.586 0z" fill="#ff965a"/></g></g></g><g><circle cx="155.819" cy="265.054" fill="#fff" r="8.929"/></g><g><path d="m264.228 139.551c-58.49-.112-105.972 47.278-105.972 105.767v30.606c0 59.59 53.479 105.687 113.398 95.543-45.743-7.782-80.579-47.582-80.579-95.543.025-42.932-.004-62.857-.008-72.567-.003-7.686 6.282-13.989 13.969-14.005h.01 46.991c27.346 0 49.514-22.168 49.514-49.514-.002 0-7.147-.229-37.323-.287z" fill="#ff965a"/></g><g><path d="m158.256 133.11v49.514 62.695c7.172 0 12.985-5.814 12.985-12.985v-15.906c0-18.669 15.134-33.804 33.804-33.804h46.991c27.346 0 49.514-22.168 49.514-49.514z" fill="#783c28"/></g><g><path d="m299.794 139.379c22.15 0 40.328 18.961 40.328 41.111v51.844c0 7.172 5.814 12.985 12.985 12.985v-109.779z" fill="#783c28"/></g><g><path d="m217.515 237.352c-1.79 0-3.241-1.451-3.241-3.241v-9.738c0-1.79 1.451-3.241 3.241-3.241 1.79 0 3.241 1.451 3.241 3.241v9.738c0 1.79-1.451 3.241-3.241 3.241z" fill="#fff"/></g><g><path d="m283.457 235.753c-1.79 0-3.241-1.451-3.241-3.241v-9.738c0-1.79 1.451-3.241 3.241-3.241 1.79 0 3.241 1.451 3.241 3.241v9.738c0 1.79-1.451 3.241-3.241 3.241z" fill="#fff"/></g><g><path d="m204.734 275.993h-21.69c-6.156 0-11.147-4.991-11.147-11.147v-100.639c0-6.156 4.991-11.147 11.147-11.147h21.69c6.156 0 11.147 4.991 11.147 11.147v100.639c-.001 6.156-4.991 11.147-11.147 11.147z" fill="#05cdff"/></g><g><path d="m325.794 275.993h-21.69c-6.156 0-11.147-4.991-11.147-11.147v-100.639c0-6.156 4.991-11.147 11.147-11.147h21.69c6.156 0 11.147 4.991 11.147 11.147v100.639c-.001 6.156-4.991 11.147-11.147 11.147z" fill="#05cdff"/></g><g><ellipse cx="257.148" cy="324.134" fill="#e0248b" rx="14.076" ry="21.071"/></g><g><path d="m90.98 511.8v-269.545c0-6.158 5.01-11.168 11.168-11.168h15.839v-12.857h-15.839c-13.247 0-24.024 10.777-24.024 24.024v269.546z" fill="#453d49"/></g><g><g><path d="m395.148 245.006c0 4.175-3.384 7.559-7.559 7.559h-262.043c-4.175 0-7.559-3.384-7.559-7.559v-57.611c0-4.175 3.384-7.559 7.559-7.559h262.042c4.175 0 7.559 3.384 7.559 7.559v57.611z" fill="#453d49"/></g><g><path d="m135.646 165.884h242.586v94.734h-242.586z" fill="#453d49"/></g><g><path d="m270.481 236.819h-25.889l-4.026 23.799h33.941z" fill="#fff"/></g><g><path d="m215.161 173.862h-42.498l-32.207 85.039h42.498z" fill="#fff"/></g><g><path d="m242.71 173.271h-15.659l-32.207 85.039h15.658z" fill="#fff"/></g><g><path d="m367.798 179.774v72.033h-221.716v-72.033zm7.56-16.104h-236.837c-4.718 0-8.543 3.825-8.543 8.543v87.154c0 4.718 3.825 8.543 8.543 8.543h236.837c4.718 0 8.543-3.825 8.543-8.543v-87.154c0-4.718-3.824-8.543-8.543-8.543z" fill="#b4d7dc"/></g></g><g><path d="m278.435 221.132h-43.208c-5.443 0-9.855-4.412-9.855-9.855 0-5.443 4.412-9.855 9.855-9.855h43.208c5.443 0 9.855 4.412 9.855 9.855 0 5.443-4.412 9.855-9.855 9.855z" fill="#05cdff"/></g></g></g></svg>