<svg id="Capa_1" enable-background="new 0 0 512 512" height="512" viewBox="0 0 512 512" width="512" xmlns="http://www.w3.org/2000/svg" xmlns:xlink="http://www.w3.org/1999/xlink"><linearGradient id="SVGID_1_" gradientUnits="userSpaceOnUse" x1="263.05" x2="263.05" y1="512" y2="0"><stop offset="0" stop-color="#5558ff"/><stop offset="1" stop-color="#00c0ff"/></linearGradient><linearGradient id="SVGID_2_" gradientUnits="userSpaceOnUse" x1="256" x2="256" y1="437" y2="0"><stop offset="0" stop-color="#addcff"/><stop offset=".5028" stop-color="#eaf6ff"/><stop offset="1" stop-color="#eaf6ff"/></linearGradient><g><g><g><path d="m316 347c0-23.115-22.178-58.184-35.215-76.729-5.332-7.983-14.59-12.744-24.785-12.744s-19.453 4.761-24.58 12.451c-13.242 18.838-35.42 53.907-35.42 77.022 0 33.091 26.924 60 60 60s60-26.909 60-60zm-240.901 90c22.202 44.399 68.101 75 120.901 75h120c52.8 0 98.701-30.601 120.901-75l-180.901-30zm240.901-407h-120c-8.401 0-15 6.599-15 15v107.901c-46.5 5.099-85.8 33.898-105.601 74.099l180.601 30 180.601-30c-19.801-40.201-59.1-69-105.601-74.099v-107.901c0-8.401-6.599-15-15-15zm90-30h-45l-30 45 30 45h45c24.814 0 45-20.186 45-45s-20.186-45-45-45z" fill="url(#SVGID_1_)"/></g></g><g><g><path d="m436.601 227h-361.202c-9.3 17.999-14.399 38.401-14.399 60v90c0 21.599 5.099 42.001 14.099 60h361.802c9.001-17.999 14.099-38.401 14.099-60v-90c0-21.599-5.098-42.001-14.399-60zm-180.601 165c-24.901 0-45-20.099-45-45 0-19.2 22.8-54.3 32.701-68.401 5.4-8.099 19.199-8.099 24.598 0 9.901 14.101 32.701 49.201 32.701 68.401 0 24.901-20.099 45-45 45zm-90-302h45v-15c0-8.401 6.599-15 15-15s15 6.599 15 15v15h30v-15c0-8.401 6.599-15 15-15s15 6.599 15 15v15h60v-90h-195c-8.401 0-15 6.599-15 15v60c0 8.401 6.599 15 15 15z" fill="url(#SVGID_2_)"/></g></g></g></svg>